<svg width="35" height="34" viewBox="0 0 35 34" fill="none" xmlns="http://www.w3.org/2000/svg">
<path d="M7.82877 26.5498C6.91506 25.5162 7.00245 23.9266 8.02395 22.9994L9.84876 21.343L14.8045 27.115L11.469 27.7869L7.82877 26.5498Z" fill="url(#paint0_linear_34040_226)"/>
<path d="M1.15582 19.204C0.584613 18.5579 0.639254 17.5639 1.27785 16.9843L3.8502 14.6494L8.59902 20.0213L1.15582 19.204Z" fill="url(#paint1_linear_34040_226)"/>
<path d="M32.9773 19.5845L19.039 32.2362C17.9798 33.1943 16.3575 33.1051 15.4101 32.0367L2.94265 17.9333C1.99847 16.8617 2.08883 15.2179 3.14479 14.2565L17.0831 1.60487C18.1423 0.646723 19.7645 0.735909 20.7119 1.80436L33.1794 15.9077C34.1236 16.979 34.0333 18.6228 32.9773 19.5845Z" fill="url(#paint2_linear_34040_226)"/>
<path opacity="0.28" d="M32.3497 15.958C29.774 17.048 25.9645 17.3383 20.7199 14.6101C14.0933 11.167 7.51001 13.0597 3.20968 15.2067C3.30714 15.0399 3.42985 14.8844 3.58139 14.7472L17.5164 2.09533C17.8978 1.75201 18.3912 1.5774 18.9026 1.60552C19.414 1.63363 19.8849 1.86156 20.2266 2.24772L32.3497 15.958Z" fill="url(#paint3_linear_34040_226)"/>
<g opacity="0.44">
<path d="M27.2683 18.7573L24.9501 25.9166L23.9518 23.9847L20.3545 27.2531C19.5155 28.0114 18.6012 28.6564 17.6285 29.1724C16.3627 29.8477 14.9727 30.1121 13.6158 30.0079L11.447 27.5546C13.9728 27.551 16.3731 26.6237 18.2716 24.9007L21.9373 21.5766L19.8589 20.1548L27.2683 18.7573Z" fill="url(#paint4_linear_34040_226)"/>
<path d="M23.891 9.8981L21.1676 18.3096L19.9918 16.0401L15.7653 19.8733C14.8402 20.7129 13.8335 21.4324 12.7719 22.0197C11.1074 22.9377 9.26279 23.2703 7.47684 23.0626L4.97589 20.2336C8.04331 20.3063 11.0287 19.1958 13.3223 17.1137L17.6213 13.2083L15.184 11.5416L23.891 9.8981Z" fill="url(#paint5_linear_34040_226)"/>
</g>
<path d="M26.6644 17.8985L24.3462 25.0577L23.3449 23.1257L19.7478 26.3907C18.9093 27.1518 17.9947 27.7944 17.0238 28.3119C13.9443 29.953 10.1474 29.1724 7.82936 26.5498L10.2496 26.6829C12.9891 26.8335 15.622 25.8955 17.6682 24.0382L21.3304 20.7169L19.2553 19.2953L26.6644 17.8985Z" fill="url(#paint6_linear_34040_226)"/>
<path d="M23.2864 9.03544L20.5628 17.4504L19.3842 15.1773L15.1575 19.0138C14.2325 19.8535 13.2286 20.571 12.1651 21.159C8.50097 23.1859 3.93749 22.3505 1.15595 19.204L3.99989 19.3603C7.19529 19.536 10.3306 18.4184 12.7158 16.2531L17.0169 12.3488L14.5796 10.6821L23.2864 9.03544Z" fill="url(#paint7_linear_34040_226)"/>
<g opacity="0.5">
<path opacity="0.78" d="M26.1814 18.3238L24.6111 23.1768C23.6834 22.3976 22.6524 21.6589 21.5264 20.9813L21.8598 20.6819L20.0966 19.4727L26.1814 18.3238Z" fill="url(#paint8_linear_34040_226)"/>
<path opacity="0.78" d="M22.803 9.46418L20.4926 16.6038L19.4762 14.6475L15.5178 18.2437C14.6386 17.9504 13.7316 17.6921 12.7996 17.4684C12.5255 17.4037 12.2509 17.3423 11.9798 17.2842C12.3068 17.0406 12.6254 16.7768 12.9314 16.4991L17.5463 12.3131L15.4206 10.8588L22.803 9.46418Z" fill="url(#paint9_linear_34040_226)"/>
</g>
<defs>
<linearGradient id="paint0_linear_34040_226" x1="7.22036" y1="24.3757" x2="14.9319" y2="24.7997" gradientUnits="userSpaceOnUse">
<stop stop-color="#CEFFBD"/>
<stop offset="1" stop-color="#30A806" stop-opacity="0.99"/>
</linearGradient>
<linearGradient id="paint1_linear_34040_226" x1="0.819731" y1="17.0383" x2="8.73896" y2="17.4736" gradientUnits="userSpaceOnUse">
<stop stop-color="#CEFFBD" stop-opacity="0.99"/>
<stop offset="1" stop-color="#38D003" stop-opacity="0.99"/>
</linearGradient>
<linearGradient id="paint2_linear_34040_226" x1="17.2284" y1="29.8565" x2="19.4771" y2="-4.94514" gradientUnits="userSpaceOnUse">
<stop stop-color="#3ABC0C" stop-opacity="0.99"/>
<stop offset="1" stop-color="#00245B"/>
</linearGradient>
<linearGradient id="paint3_linear_34040_226" x1="18.2839" y1="8.02663" x2="17.6613" y2="17.3172" gradientUnits="userSpaceOnUse">
<stop/>
<stop offset="1" stop-color="#B0D1FF"/>
</linearGradient>
<linearGradient id="paint4_linear_34040_226" x1="11.6485" y1="23.9002" x2="26.9395" y2="24.7408" gradientUnits="userSpaceOnUse">
<stop stop-color="#001334"/>
<stop offset="1" stop-color="#00245B"/>
</linearGradient>
<linearGradient id="paint5_linear_34040_226" x1="5.21379" y1="15.9128" x2="23.5049" y2="16.9184" gradientUnits="userSpaceOnUse">
<stop stop-color="#001334"/>
<stop offset="1" stop-color="#00245B"/>
</linearGradient>
<linearGradient id="paint6_linear_34040_226" x1="8.03136" y1="22.8749" x2="26.3356" y2="23.8812" gradientUnits="userSpaceOnUse">
<stop stop-color="#34B507"/>
<stop offset="1" stop-color="#40EE03" stop-opacity="0.99"/>
</linearGradient>
<linearGradient id="paint7_linear_34040_226" x1="1.39421" y1="14.8746" x2="22.9006" y2="16.0569" gradientUnits="userSpaceOnUse">
<stop stop-color="#38C407" stop-opacity="0.99"/>
<stop offset="1" stop-color="#3FF300" stop-opacity="0.99"/>
</linearGradient>
<linearGradient id="paint8_linear_34040_226" x1="24.2707" y1="18.4673" x2="20.349" y2="24.1689" gradientUnits="userSpaceOnUse">
<stop/>
<stop offset="1" stop-color="#B0D1FF"/>
</linearGradient>
<linearGradient id="paint9_linear_34040_226" x1="17.5218" y1="14.2379" x2="12.9762" y2="19.3962" gradientUnits="userSpaceOnUse">
<stop/>
<stop offset="1" stop-color="#B0D1FF"/>
</linearGradient>
</defs>
</svg>
